<svg xmlns="http://www.w3.org/2000/svg" viewBox="0 0 1854.3 278.86"><defs><style>.a{fill:#6e7072;}.b{fill:#30a6de;}</style></defs><title>Iotanium-3-Dark</title><path class="a" d="M1774.52,401.23a112.63,112.63,0,0,0-103.11,67.59,112.46,112.46,0,0,0-215.59,44.89V669.55a9.76,9.76,0,0,0,19.53,0V513.71a93,93,0,0,1,185.9,0V669.55a9.76,9.76,0,0,0,9.76,9.76c.13,0,.26,0,.39,0s.26,0,.39,0a9.76,9.76,0,0,0,9.76-9.76V513.71a93,93,0,1,1,185.9,0V669.55a9.76,9.76,0,0,0,19.53,0V513.71A112.61,112.61,0,0,0,1774.52,401.23Z" transform="translate(-32.7 -400.84)"/><path class="a" d="M1409.76,401.23A9.76,9.76,0,0,0,1400,411V566.83a93,93,0,1,1-185.9,0V411a9.76,9.76,0,1,0-19.53,0V566.83a112.48,112.48,0,1,0,225,0V411A9.76,9.76,0,0,0,1409.76,401.23Z" transform="translate(-32.7 -400.84)"/><path class="a" d="M1145.94,679.31a9.76,9.76,0,0,1-9.76-9.76V411a9.76,9.76,0,1,1,19.53,0V669.55A9.76,9.76,0,0,1,1145.94,679.31Z" transform="translate(-32.7 -400.84)"/><path class="a" d="M1088.66,679.31a9.76,9.76,0,0,1-9.76-9.76V513.71a93,93,0,0,0-185.9,0V669.55a9.76,9.76,0,0,1-19.53,0V513.71a112.48,112.48,0,1,1,225,0V669.55A9.76,9.76,0,0,1,1088.66,679.31Z" transform="translate(-32.7 -400.84)"/><path class="a" d="M727.89,401.23A112.61,112.61,0,0,0,615.41,513.71V669.55a9.76,9.76,0,0,0,19.53,0V581H793.11a9.76,9.76,0,0,0,0-19.53H634.93V513.71a93,93,0,1,1,185.9,0v38.21a9.76,9.76,0,0,0,19.53,0V513.71A112.61,112.61,0,0,0,727.89,401.23Z" transform="translate(-32.7 -400.84)"/><path class="b" d="M830.6,679.31a9.76,9.76,0,0,1-9.76-9.76V591.17a9.76,9.76,0,0,1,19.53,0v78.37A9.76,9.76,0,0,1,830.6,679.31Z" transform="translate(-32.7 -400.84)"/><path class="b" d="M42.47,679.31a9.76,9.76,0,0,1-9.76-9.76V411a9.76,9.76,0,1,1,19.53,0V669.55A9.76,9.76,0,0,1,42.47,679.31Z" transform="translate(-32.7 -400.84)"/><path class="b" d="M592.29,401.23H386.86a9.76,9.76,0,0,0,0,19.53h93V669.55a9.76,9.76,0,0,0,19.53,0V420.76h93a9.76,9.76,0,0,0,0-19.53Z" transform="translate(-32.7 -400.84)"/><path class="a" d="M233,498.74a9.76,9.76,0,0,1-9.76-9.76V410.61a9.76,9.76,0,0,1,19.53,0V489A9.76,9.76,0,0,1,233,498.74Z" transform="translate(-32.7 -400.84)"/><path class="b" d="M381.4,533.71c0-.68-.09-1.36-.13-2-.1-1.51-.22-3-.37-4.52q-.11-1.14-.25-2.27c-.18-1.48-.38-3-.61-4.42-.1-.67-.2-1.35-.31-2-.34-2-.71-4-1.14-5.93,0-.12,0-.23-.07-.35-.46-2.07-1-4.13-1.53-6.17-.17-.63-.36-1.25-.54-1.88-.41-1.42-.84-2.84-1.3-4.25q-.35-1.06-.71-2.11-.71-2.06-1.49-4.09c-.24-.63-.48-1.27-.73-1.9q-1.05-2.64-2.22-5.22c-.08-.19-.16-.38-.25-.57-.87-1.91-1.79-3.78-2.75-5.65-.29-.56-.59-1.11-.89-1.67-.7-1.31-1.41-2.61-2.15-3.9q-.55-1-1.12-1.91-1.1-1.85-2.27-3.67c-.37-.58-.74-1.16-1.12-1.74q-1.5-2.27-3.08-4.47l-.5-.71q-1.67-2.29-3.42-4.51l-.13-.13c-19.08-24-46.27-42.18-77.76-50.93a9.75,9.75,0,0,0-12.3,9.42v0a9.74,9.74,0,0,0,7.15,9.38c28.66,8,53.19,24.8,69.79,47,.22.3.46.59.68.89q1.6,2.18,3.09,4.43c.27.4.51.81.77,1.21q1.09,1.68,2.13,3.4c.32.53.63,1.07.94,1.6q.93,1.61,1.81,3.25c.28.52.57,1,.84,1.57q1,2,2,4.06c.13.27.26.53.39.8q1.12,2.45,2.13,5c.19.47.37,1,.55,1.43.47,1.22.93,2.45,1.36,3.68.21.59.4,1.19.6,1.78q.59,1.79,1.11,3.6c.16.56.33,1.12.49,1.69q.65,2.37,1.2,4.77c0,.18.09.35.13.53.4,1.78.74,3.57,1,5.38.09.54.17,1.08.25,1.62.2,1.3.38,2.6.54,3.91q.11,1,.21,1.9c.13,1.29.24,2.59.32,3.89,0,.58.09,1.16.11,1.74.09,1.86.15,3.74.15,5.62,0,66.11-58.45,119.9-130.3,119.9s-130.3-53.79-130.3-119.9c0-1.89.06-3.76.15-5.62,0-.58.08-1.16.11-1.74.09-1.3.19-2.6.32-3.9q.1-1,.21-1.91c.16-1.31.34-2.61.54-3.9.08-.54.16-1.08.25-1.62.31-1.8.65-3.6,1-5.38,0-.18.09-.35.13-.53q.55-2.4,1.2-4.77c.16-.56.32-1.12.49-1.68q.53-1.81,1.12-3.6c.2-.59.39-1.19.6-1.78.43-1.24.88-2.46,1.36-3.68.19-.48.36-1,.55-1.43q1-2.5,2.13-5c.12-.26.26-.52.38-.79q1-2.06,2-4.08c.27-.53.56-1,.84-1.57q.88-1.64,1.82-3.26c.31-.54.62-1.07.94-1.6q1-1.72,2.13-3.4c.26-.4.51-.8.77-1.2q1.49-2.25,3.09-4.43c.22-.31.46-.6.69-.91,17-22.79,42.39-39.89,72-47.6a9.79,9.79,0,0,0,7.39-9.45h0A9.76,9.76,0,0,0,191.51,406c-32.59,8.46-60.75,26.9-80.35,51.6l-.13.13q-1.76,2.22-3.42,4.52l-.49.69q-1.59,2.22-3.1,4.49c-.38.57-.74,1.15-1.11,1.73q-1.17,1.82-2.27,3.68-.56.95-1.12,1.9-1.11,1.93-2.15,3.9c-.3.56-.6,1.11-.89,1.67-1,1.86-1.88,3.74-2.75,5.65-.09.19-.16.38-.25.57q-1.16,2.58-2.22,5.22c-.25.63-.49,1.27-.73,1.9q-.78,2-1.49,4.09-.36,1-.71,2.11c-.46,1.41-.89,2.83-1.3,4.26-.18.62-.37,1.24-.54,1.87-.56,2-1.08,4.09-1.53,6.17,0,.11,0,.23-.07.35-.43,2-.8,3.94-1.14,5.93-.11.67-.21,1.35-.31,2q-.34,2.2-.61,4.42-.13,1.13-.25,2.27c-.15,1.5-.27,3-.37,4.52,0,.68-.1,1.36-.13,2-.11,2.18-.18,4.36-.18,6.56,0,76.88,67.21,139.43,149.83,139.43s149.83-62.55,149.83-139.43C381.58,538.07,381.51,535.89,381.4,533.71Z" transform="translate(-32.7 -400.84)"/></svg>